<?xml version="1.0" standalone="no"?>
<!DOCTYPE svg PUBLIC "-//W3C//DTD SVG 20010904//EN"
 "http://www.w3.org/TR/2001/REC-SVG-20010904/DTD/svg10.dtd">
<svg version="1.0" xmlns="http://www.w3.org/2000/svg"
 width="300.000000pt" height="300.000000pt" viewBox="0 0 300.000000 300.000000"
 preserveAspectRatio="xMidYMid meet">
<metadata>
Created by potrace 1.10, written by Peter Selinger 2001-2011
</metadata>
<g transform="translate(0.000000,300.000000) scale(0.100000,-0.100000)"
fill="#000000" stroke="none">
<path d="M910 1910 c-11 -11 -20 -31 -20 -45 0 -14 9 -34 20 -45 11 -11 31
-20 45 -20 29 0 65 32 65 59 0 29 -39 71 -66 71 -13 0 -33 -9 -44 -20z m60
-45 c0 -19 -13 -25 -30 -15 -11 7 -11 11 -1 24 15 17 31 13 31 -9z"/>
<path d="M370 1410 l0 -310 50 0 50 0 0 79 0 79 98 4 c116 4 168 28 216 96 25
35 31 55 34 113 5 89 -15 147 -69 192 -55 47 -97 57 -248 57 l-131 0 0 -310z
m102 270 c6 0 3 -9 -8 -21 -16 -18 -19 -40 -22 -162 -3 -129 -2 -142 17 -168
26 -34 26 -34 1 -59 -15 -15 -20 -33 -20 -71 0 -43 -3 -50 -17 -47 -17 3 -18
24 -20 255 -2 219 0 254 14 268 8 9 22 14 30 11 8 -3 19 -6 25 -6z m291 -94
c42 -80 30 -170 -31 -230 -35 -36 -59 -42 -30 -9 66 75 68 199 5 278 l-32 40
35 -22 c19 -12 43 -38 53 -57z m-83 18 c51 -58 51 -170 0 -228 -27 -30 -32
-31 -119 -34 l-91 -4 0 152 0 152 91 -4 c87 -3 92 -4 119 -34z"/>
<path d="M900 1490 l0 -230 55 0 55 0 0 230 0 230 -55 0 -55 0 0 -230z m69 0
c-1 -168 -4 -194 -20 -184 -10 6 -12 357 -2 367 17 18 23 -31 22 -183z"/>
<path d="M1232 1707 c-92 -35 -142 -111 -142 -217 0 -112 57 -193 156 -220 75
-21 162 3 184 51 4 7 15 28 24 46 19 37 21 137 4 195 -6 21 -22 50 -35 64 -13
15 -22 28 -20 31 9 9 70 -52 83 -83 14 -33 22 -260 9 -272 -3 -3 -15 0 -26 7
-24 14 -24 15 -33 -21 l-6 -28 56 0 56 0 -4 153 c-3 145 -4 154 -31 199 -37
64 -98 99 -180 104 -35 2 -76 -2 -95 -9z m-2 -54 c-41 -16 -70 -88 -70 -173 0
-54 5 -74 23 -101 41 -60 41 -62 21 -51 -66 35 -99 134 -74 224 13 45 70 108
96 107 15 0 15 -2 4 -6z m140 -28 c41 -21 59 -62 66 -148 6 -68 5 -75 -18
-102 -21 -24 -34 -29 -84 -33 -54 -4 -63 -1 -91 22 -40 33 -57 84 -51 148 10
102 95 156 178 113z"/>
<path d="M1766 1705 c-61 -21 -88 -46 -118 -105 -27 -51 -28 -60 -28 -197 l0
-143 53 0 52 0 -3 127 c-2 90 1 140 11 168 39 113 195 110 227 -4 5 -20 10
-93 10 -163 l0 -128 50 0 50 0 0 147 c0 128 -3 152 -21 190 -49 102 -171 148
-283 108z m218 -84 c46 -47 57 -94 55 -223 -1 -79 -3 -88 -20 -88 -18 0 -19 9
-19 119 0 127 -13 180 -50 203 -11 7 -20 16 -20 20 0 17 17 6 54 -31z m-248 7
c-38 -52 -46 -87 -46 -195 0 -103 -9 -147 -27 -129 -4 4 -8 60 -7 124 1 124
13 166 58 204 30 24 42 22 22 -4z"/>
<path d="M2306 1710 c-108 -33 -175 -154 -148 -272 25 -105 91 -164 195 -175
143 -15 250 82 250 227 0 162 -141 266 -297 220z m222 -93 c29 -30 36 -57 36
-132 0 -73 -23 -120 -74 -149 l-35 -20 32 37 c18 20 36 53 42 72 19 70 -2 170
-43 204 -9 8 -16 18 -16 23 0 13 31 -6 58 -35z m-262 6 c-44 -47 -57 -174 -24
-237 6 -11 22 -30 36 -43 18 -17 21 -23 9 -23 -21 0 -69 53 -84 92 -17 48 -15
124 3 161 21 41 54 77 71 77 9 0 5 -10 -11 -27z m175 0 c38 -23 59 -70 59
-133 0 -93 -46 -150 -120 -150 -43 0 -87 25 -105 60 -20 38 -20 142 0 180 29
56 109 77 166 43z"/>
<path d="M2611 1702 c0 -12 2 -13 6 -3 4 10 7 11 13 1 4 -7 15 -10 24 -7 26
10 18 24 -14 25 -22 0 -30 -4 -29 -16z"/>
</g>
</svg>
